<?xml version="1.0" standalone="no"?>
<!DOCTYPE svg PUBLIC "-//W3C//DTD SVG 20010904//EN"
 "http://www.w3.org/TR/2001/REC-SVG-20010904/DTD/svg10.dtd">
<svg version="1.0" xmlns="http://www.w3.org/2000/svg"
 width="16.000000pt" height="16.000000pt" viewBox="0 0 16.000000 16.000000"
 preserveAspectRatio="xMidYMid meet">
<metadata>
Created by potrace 1.11, written by Peter Selinger 2001-2013
</metadata>
<g transform="translate(0.000000,16.000000) scale(0.003200,-0.003200)"
fill="#000000" stroke="none">
<path d="M3090 4450 l0 -40 -40 0 -40 0 0 -40 c0 -39 -1 -40 -35 -40 -34 0
-35 -1 -35 -40 l0 -40 -40 0 -40 0 0 -80 0 -80 -40 0 -40 0 0 -75 0 -75 -40 0
-40 0 0 -120 0 -120 -40 0 -40 0 0 -240 0 -240 -40 0 -40 0 0 -80 0 -80 -40 0
-40 0 0 -40 0 -40 -40 0 -40 0 0 -40 0 -40 -40 0 -40 0 0 -40 0 -40 -40 0 -40
0 0 -40 0 -40 -40 0 -40 0 0 -40 0 -40 -80 0 -80 0 0 -35 0 -35 -80 0 -80 0 0
-40 0 -40 -75 0 -75 0 0 -40 0 -40 -80 0 -80 0 0 -40 0 -40 -40 0 -40 0 0 -40
0 -40 -40 0 -40 0 0 -40 0 -40 -40 0 -40 0 0 -40 0 -40 -40 0 -40 0 0 -40 0
-40 -40 0 -40 0 0 -80 0 -80 -40 0 -40 0 0 -80 0 -80 -40 0 -40 0 0 -40 0 -40
-80 0 -80 0 0 160 0 160 40 0 40 0 0 40 0 40 80 0 80 0 0 80 0 80 -40 0 -40 0
0 40 0 40 -200 0 -200 0 0 -40 0 -40 -75 0 -75 0 0 -40 0 -40 -40 0 -40 0 0
-40 0 -40 -40 0 -40 0 0 -40 0 -40 -45 0 -45 0 0 -200 0 -200 45 0 45 0 0 -40
0 -40 40 0 40 0 0 -40 0 -40 40 0 c39 0 40 -1 40 -35 l0 -35 115 0 115 0 0
-40 0 -40 160 0 160 0 0 -160 0 -160 40 0 40 0 0 -80 0 -80 40 0 40 0 0 -40 0
-40 40 0 40 0 0 -40 0 -40 40 0 40 0 0 -40 0 -40 635 0 635 0 0 120 0 120 120
0 120 0 0 40 0 40 80 0 80 0 0 -40 c0 -39 1 -40 35 -40 l35 0 0 -80 0 -80 40
0 40 0 0 -40 0 -40 320 0 320 0 0 40 0 40 160 0 160 0 0 40 0 40 40 0 40 0 0
120 0 120 -40 0 -40 0 0 80 0 80 -40 0 -40 0 0 315 0 315 40 0 40 0 0 200 0
200 40 0 40 0 0 120 0 120 75 0 75 0 0 40 0 40 120 0 120 0 0 -80 0 -80 40 0
40 0 0 -40 0 -40 120 0 120 0 0 40 0 40 45 0 45 0 0 195 0 195 -45 0 -45 0 0
40 0 40 -40 0 -40 0 0 40 0 40 -40 0 -40 0 0 40 0 40 -80 0 -80 0 0 40 0 40
40 0 40 0 0 40 0 40 80 0 80 0 0 40 0 40 40 0 40 0 0 160 0 160 -40 0 -40 0 0
40 0 40 -80 0 -80 0 0 40 0 40 -40 0 -40 0 0 80 0 80 -40 0 -40 0 0 40 0 40
-40 0 -40 0 0 40 0 40 40 0 40 0 0 235 0 235 -40 0 -40 0 0 40 0 40 -75 0 -75
0 0 -40 0 -40 -40 0 -40 0 0 -40 0 -40 -40 0 -40 0 0 -40 0 -40 -40 0 -40 0 0
-40 0 -40 -280 0 -280 0 0 120 0 120 -40 0 -40 0 0 40 0 40 -120 0 -120 0 0
-40z"/>
</g>
</svg>
